<?xml version="1.0" encoding="utf-8"?>
<svg viewBox="0 0 512 512" xmlns="http://www.w3.org/2000/svg">
  <defs>
    <linearGradient id="sw-gradient" x1="0" x2="1" y1="1" y2="0">
      <stop id="stop1" stop-color="rgba(255, 176.199, 82.151, 1)" offset="0" data-darkreader-inline-stopcolor="" style="--darkreader-inline-stopcolor: #9b5400;"/>
      <stop id="stop2" stop-color="rgba(237.995, 18.895, 101, 1)" offset="1" data-darkreader-inline-stopcolor="" style="--darkreader-inline-stopcolor: #bd0e4f;"/>
    </linearGradient>
  </defs>
  <path fill="url(#sw-gradient)" d="M 378.154 100.807 C 412.567 131.617 429.777 177.375 433.711 221.323 C 437.153 265.721 427.32 308.308 402.735 339.571 C 378.643 370.83 339.805 390.765 298.016 404.809 C 256.715 419.308 212.463 428.37 174.605 417.496 C 136.749 406.621 105.282 375.816 82.177 340.024 C 59.558 304.232 45.792 263.455 58.087 231.742 C 69.886 199.573 108.234 176.923 142.649 145.66 C 177.558 114.854 208.535 75.889 250.325 64.563 C 291.62 53.235 343.243 69.548 378.154 100.807 Z" width="100%" height="100%" stroke-width="0" style="transition: all 0.3s ease 0s;"/>
  <path d="M 318.059 148.34 C 320.585 150.727 322.081 154.546 322.081 158.563 L 322.081 187.203 L 322.081 292.214 C 322.081 309.794 308.677 324.035 292.161 324.035 C 275.64 324.035 262.241 309.794 262.241 292.214 C 262.241 274.632 275.64 260.392 292.161 260.392 C 295.651 260.392 299.016 261.028 302.133 262.222 L 302.133 204.307 L 222.349 234.855 L 222.349 317.671 C 222.349 335.252 208.945 349.492 192.43 349.492 C 175.909 349.492 162.509 335.252 162.509 317.671 C 162.509 300.089 175.909 285.849 192.43 285.849 C 195.92 285.849 199.285 286.485 202.401 287.679 L 202.401 225.389 L 202.401 196.749 C 202.401 191.14 205.301 186.168 209.506 184.538 L 309.238 146.352 C 312.263 145.198 315.532 145.914 318.059 148.34 Z" style="fill: rgb(255, 255, 255);"/>
</svg>